<svg width="400" height="400" viewBox="0 0 400 400" fill="none" xmlns="http://www.w3.org/2000/svg">
<circle cx="200" cy="200" r="200" fill="#141414"/>
<mask id="path-2-outside-1_169_714" maskUnits="userSpaceOnUse" x="70.4855" y="43.0855" width="253.122" height="316.055" fill="black">
<rect fill="white" x="70.4855" y="43.0855" width="253.122" height="316.055"/>
<path d="M115.878 58.4351L114.767 88.0575C115.424 127.785 121.142 167.163 131.921 206.19C138.166 229.023 145.838 249.433 154.936 267.418C164.03 285.137 176.142 299.872 191.272 311.624C206.401 323.375 222.632 329.108 239.963 328.822C257.56 328.531 270.122 322.056 277.647 309.396C285.438 296.732 289.149 279.202 288.779 256.805C288.409 234.408 283.467 209.686 273.952 182.64C264.432 155.327 252.313 132.057 237.593 112.831C227.395 108.999 214.989 100.67 200.375 87.8428C185.757 74.7492 178.41 65.9361 178.335 61.4034C178.291 58.7371 180.78 56.0289 185.802 53.2789C191.086 50.2578 195.061 48.7253 197.728 48.6812C215.325 48.3904 232.002 56.916 247.757 74.258C263.512 91.6 272.958 106.379 276.094 118.596C294.321 124.162 305.577 127.443 309.861 128.439C314.14 129.169 316.3 130.733 316.339 133.133C316.388 136.066 314.812 137.559 311.613 137.611C308.68 137.66 305.34 137.315 301.594 136.577C294.102 135.1 287.943 133.602 283.117 132.082C293.791 164.71 299.432 199.421 300.04 236.216C300.56 267.679 295.264 294.17 284.152 315.69C277.942 327.26 268.891 336.345 256.998 342.942C245.11 349.806 229.967 353.39 211.57 353.694C193.172 353.998 175.031 345.63 157.147 328.59C139.526 311.279 124.889 288.984 113.236 261.706C101.584 234.429 92.2915 204.711 85.3592 172.555C78.4269 140.398 74.7073 108.989 74.2006 78.3265C74.7074 76.7179 75.4853 75.3715 76.5342 74.2874C82.3383 70.4576 89.8668 66.0659 99.1195 61.1123C108.372 56.1588 113.399 53.6754 114.198 53.6622C115.265 53.6445 115.825 55.2355 115.878 58.4351Z"/>
</mask>
<path d="M115.878 58.4351L114.767 88.0575C115.424 127.785 121.142 167.163 131.921 206.19C138.166 229.023 145.838 249.433 154.936 267.418C164.03 285.137 176.142 299.872 191.272 311.624C206.401 323.375 222.632 329.108 239.963 328.822C257.56 328.531 270.122 322.056 277.647 309.396C285.438 296.732 289.149 279.202 288.779 256.805C288.409 234.408 283.467 209.686 273.952 182.64C264.432 155.327 252.313 132.057 237.593 112.831C227.395 108.999 214.989 100.67 200.375 87.8428C185.757 74.7492 178.41 65.9361 178.335 61.4034C178.291 58.7371 180.78 56.0289 185.802 53.2789C191.086 50.2578 195.061 48.7253 197.728 48.6812C215.325 48.3904 232.002 56.916 247.757 74.258C263.512 91.6 272.958 106.379 276.094 118.596C294.321 124.162 305.577 127.443 309.861 128.439C314.14 129.169 316.3 130.733 316.339 133.133C316.388 136.066 314.812 137.559 311.613 137.611C308.68 137.66 305.34 137.315 301.594 136.577C294.102 135.1 287.943 133.602 283.117 132.082C293.791 164.71 299.432 199.421 300.04 236.216C300.56 267.679 295.264 294.17 284.152 315.69C277.942 327.26 268.891 336.345 256.998 342.942C245.11 349.806 229.967 353.39 211.57 353.694C193.172 353.998 175.031 345.63 157.147 328.59C139.526 311.279 124.889 288.984 113.236 261.706C101.584 234.429 92.2915 204.711 85.3592 172.555C78.4269 140.398 74.7073 108.989 74.2006 78.3265C74.7074 76.7179 75.4853 75.3715 76.5342 74.2874C82.3383 70.4576 89.8668 66.0659 99.1195 61.1123C108.372 56.1588 113.399 53.6754 114.198 53.6622C115.265 53.6445 115.825 55.2355 115.878 58.4351Z" fill="white"/>
<path d="M115.878 58.4351L118.875 58.5475L118.879 58.4665L118.877 58.3855L115.878 58.4351ZM114.767 88.0575L111.769 87.9451L111.766 88.026L111.767 88.107L114.767 88.0575ZM131.921 206.19L134.815 205.399L134.813 205.391L131.921 206.19ZM154.936 267.418L152.259 268.772L152.263 268.78L152.267 268.788L154.936 267.418ZM191.272 311.624L193.112 309.255L193.112 309.255L191.272 311.624ZM277.647 309.396L275.092 307.824L275.08 307.844L275.068 307.863L277.647 309.396ZM273.952 182.64L271.119 183.627L271.122 183.636L273.952 182.64ZM237.593 112.831L239.975 111.007L239.453 110.325L238.648 110.023L237.593 112.831ZM200.375 87.8428L198.374 90.0775L198.385 90.0875L198.396 90.0975L200.375 87.8428ZM185.802 53.2789L187.243 55.9102L187.267 55.897L187.291 55.8833L185.802 53.2789ZM247.757 74.258L245.537 76.2753L245.537 76.2753L247.757 74.258ZM276.094 118.596L273.188 119.342L273.607 120.973L275.217 121.465L276.094 118.596ZM309.861 128.439L309.181 131.361L309.269 131.381L309.357 131.397L309.861 128.439ZM301.594 136.577L302.174 133.633L302.174 133.633L301.594 136.577ZM283.117 132.082L284.019 129.22L278.451 127.466L280.266 133.014L283.117 132.082ZM284.152 315.69L286.795 317.108L286.806 317.087L286.817 317.066L284.152 315.69ZM256.998 342.942L255.543 340.319L255.52 340.331L255.498 340.344L256.998 342.942ZM157.147 328.59L155.045 330.73L155.061 330.746L155.078 330.762L157.147 328.59ZM113.236 261.706L110.477 262.885L113.236 261.706ZM85.3592 172.555L88.2918 171.923L88.2918 171.923L85.3592 172.555ZM74.2006 78.3265L71.3393 77.4249L71.193 77.8893L71.201 78.376L74.2006 78.3265ZM76.5342 74.2874L74.8819 71.7833L74.6071 71.9647L74.3781 72.2014L76.5342 74.2874ZM99.1195 61.1123L100.535 63.7572L100.535 63.7572L99.1195 61.1123ZM112.88 58.3227L111.769 87.9451L117.765 88.1699L118.875 58.5475L112.88 58.3227ZM111.767 88.107C112.428 128.093 118.184 167.722 129.03 206.989L134.813 205.391C124.1 166.604 118.419 127.478 117.767 88.0079L111.767 88.107ZM129.028 206.982C135.317 229.977 143.056 250.579 152.259 268.772L157.613 266.064C148.62 248.286 141.016 228.07 134.815 205.399L129.028 206.982ZM152.267 268.788C161.553 286.881 173.942 301.962 189.431 313.993L193.112 309.255C178.342 297.782 166.507 283.393 157.605 266.048L152.267 268.788ZM189.431 313.993C205.04 326.117 221.925 332.12 240.012 331.821L239.913 325.822C223.338 326.096 207.762 320.634 193.112 309.255L189.431 313.993ZM240.012 331.821C258.413 331.517 272.058 324.669 280.225 310.929L275.068 307.863C268.185 319.442 256.707 325.544 239.913 325.822L240.012 331.821ZM280.202 310.968C288.409 297.629 292.154 279.454 291.779 256.755L285.78 256.855C286.145 278.95 282.468 295.835 275.092 307.824L280.202 310.968ZM291.779 256.755C291.402 233.96 286.375 208.914 276.782 181.644L271.122 183.636C280.558 210.459 285.416 234.856 285.78 256.855L291.779 256.755ZM276.784 181.653C267.18 154.095 254.922 130.53 239.975 111.007L235.211 114.655C249.704 133.584 261.685 156.558 271.119 183.627L276.784 181.653ZM238.648 110.023C228.957 106.381 216.875 98.3334 202.354 85.5881L198.396 90.0975C213.103 103.006 225.833 111.617 236.538 115.639L238.648 110.023ZM202.377 85.6081C195.111 79.1007 189.743 73.7355 186.206 69.4919C184.436 67.3685 183.18 65.5922 182.377 64.1475C181.545 62.6516 181.342 61.7643 181.335 61.3538L175.336 61.453C175.366 63.3089 176.109 65.223 177.133 67.0635C178.185 68.9552 179.694 71.0505 181.597 73.3337C185.406 77.9032 191.02 83.4914 198.374 90.0775L202.377 85.6081ZM181.335 61.3538C181.33 61.0414 181.454 60.4079 182.378 59.4026C183.313 58.3848 184.878 57.2054 187.243 55.9102L184.361 50.6476C181.704 52.1024 179.514 53.6521 177.96 55.3425C176.395 57.0453 175.297 59.0991 175.336 61.453L181.335 61.3538ZM187.291 55.8833C192.564 52.8686 195.948 51.711 197.777 51.6808L197.678 45.6816C194.174 45.7395 189.608 47.6471 184.313 50.6745L187.291 55.8833ZM197.777 51.6808C214.25 51.4086 230.159 59.3486 245.537 76.2753L249.978 72.2407C233.845 54.4833 216.4 45.3722 197.678 45.6816L197.777 51.6808ZM245.537 76.2753C261.2 93.516 270.238 107.85 273.188 119.342L278.999 117.85C275.678 104.908 265.825 89.684 249.978 72.2407L245.537 76.2753ZM275.217 121.465C293.404 127.018 304.775 130.337 309.181 131.361L310.54 125.517C306.38 124.55 295.239 121.306 276.97 115.727L275.217 121.465ZM309.357 131.397C311.295 131.727 312.386 132.195 312.93 132.589C313.343 132.888 313.337 133.041 313.34 133.182L319.339 133.083C319.302 130.825 318.197 128.996 316.45 127.73C314.835 126.56 312.706 125.881 310.365 125.482L309.357 131.397ZM313.34 133.182C313.347 133.651 313.287 133.933 313.235 134.084C313.189 134.218 313.147 134.259 313.131 134.274C313.097 134.306 312.762 134.592 311.563 134.612L311.662 140.611C313.663 140.578 315.715 140.091 317.257 138.63C318.848 137.122 319.372 135.082 319.339 133.083L313.34 133.182ZM311.563 134.612C308.894 134.656 305.771 134.342 302.174 133.633L301.014 139.52C304.909 140.288 308.466 140.664 311.662 140.611L311.563 134.612ZM302.174 133.633C294.742 132.169 288.701 130.695 284.019 129.22L282.216 134.943C287.186 136.509 293.462 138.032 301.014 139.52L302.174 133.633ZM280.266 133.014C290.84 165.337 296.437 199.749 297.041 236.266L303.04 236.167C302.427 199.093 296.742 164.082 285.969 131.149L280.266 133.014ZM297.041 236.266C297.555 267.376 292.313 293.346 281.486 314.313L286.817 317.066C298.215 294.993 303.566 267.981 303.04 236.167L297.041 236.266ZM281.508 314.271C275.581 325.316 266.951 333.99 255.543 340.319L258.454 345.565C270.831 338.699 280.303 329.205 286.795 317.108L281.508 314.271ZM255.498 340.344C244.176 346.881 229.575 350.396 211.52 350.695L211.619 356.694C230.36 356.384 246.044 352.731 258.498 345.54L255.498 340.344ZM211.52 350.695C194.15 350.982 176.731 343.106 159.217 326.418L155.078 330.762C173.331 348.154 192.195 357.015 211.619 356.694L211.52 350.695ZM159.25 326.45C141.958 309.463 127.524 287.516 115.995 260.528L110.477 262.885C122.253 290.452 137.094 313.095 155.045 330.73L159.25 326.45ZM115.995 260.528C104.426 233.444 95.1881 203.912 88.2918 171.923L82.4266 173.187C89.3949 205.511 98.7422 235.413 110.477 262.885L115.995 260.528ZM88.2918 171.923C81.3978 139.944 77.7035 108.73 77.2002 78.2769L71.201 78.376C71.7112 109.248 75.4559 140.853 82.4266 173.187L88.2918 171.923ZM77.0619 79.228C77.4455 78.0106 78.0017 77.085 78.6902 76.3733L74.3781 72.2014C72.9688 73.658 71.9693 75.4251 71.3393 77.4249L77.0619 79.228ZM78.1864 76.7914C83.886 73.0306 91.3274 68.6868 100.535 63.7572L97.7036 58.4675C88.4062 63.445 80.7906 67.8846 74.8819 71.7833L78.1864 76.7914ZM100.535 63.7572C105.153 61.285 108.689 59.444 111.158 58.2242C112.396 57.6122 113.333 57.1733 113.988 56.8927C114.318 56.7511 114.537 56.667 114.666 56.6234C114.908 56.5412 114.67 56.6548 114.248 56.6617L114.149 50.6626C113.527 50.6728 112.957 50.8669 112.735 50.9424C112.4 51.0564 112.022 51.2073 111.624 51.3777C110.823 51.7213 109.774 52.2154 108.5 52.845C105.942 54.1086 102.339 55.9861 97.7036 58.4675L100.535 63.7572ZM114.248 56.6617C113.996 56.6659 113.716 56.621 113.439 56.5075C113.165 56.3955 112.959 56.2434 112.817 56.1066C112.562 55.8598 112.533 55.6815 112.588 55.8377C112.635 55.9711 112.707 56.2466 112.767 56.7175C112.826 57.1779 112.866 57.7622 112.878 58.4846L118.877 58.3855C118.849 56.6982 118.692 55.1084 118.248 53.8466C117.831 52.6614 116.675 50.6208 114.149 50.6626L114.248 56.6617Z" fill="black" mask="url(#path-2-outside-1_169_714)"/>
</svg>
