<svg width="261" height="267" viewBox="0 0 261 267" fill="none" xmlns="http://www.w3.org/2000/svg">
<path opacity="0.0344828" d="M33.7731 62.6237C34.8776 61.3073 36.5797 60.4422 38.9431 60.0877C41.3149 59.7319 44.2893 59.9025 47.8188 60.6079C54.8768 62.0186 63.947 65.5249 74.4282 70.857C95.3759 81.5136 121.759 99.3592 148.593 121.876C175.427 144.392 197.583 167.276 211.716 186.055C218.787 195.451 223.815 203.774 226.43 210.48C227.737 213.834 228.422 216.733 228.483 219.131C228.545 221.52 227.988 223.346 226.883 224.663C225.779 225.979 224.077 226.844 221.713 227.199C219.342 227.554 216.367 227.384 212.838 226.678C205.78 225.268 196.71 221.761 186.228 216.429C165.281 205.773 138.897 187.927 112.063 165.411C85.2291 142.894 63.0732 120.01 48.9409 101.232C41.8698 91.8355 36.8418 83.5119 34.2269 76.8061C32.9193 73.4527 32.2348 70.5532 32.1733 68.1557C32.112 65.7665 32.6685 63.9401 33.7731 62.6237Z" stroke="white" stroke-width="2"/>
<path opacity="0.0689655" d="M41.202 53.5027C42.4171 52.2876 44.1881 51.5741 46.5735 51.4269C48.9672 51.2792 51.9154 51.7083 55.37 52.7187C62.2782 54.7392 71.0083 59.0227 80.9849 65.248C100.924 77.6898 125.652 97.7669 150.421 122.537C175.191 147.306 195.268 172.034 207.71 191.973C213.935 201.949 218.218 210.68 220.239 217.588C221.249 221.042 221.678 223.99 221.531 226.384C221.384 228.77 220.67 230.541 219.455 231.756C218.24 232.971 216.469 233.684 214.084 233.831C211.69 233.979 208.742 233.55 205.287 232.54C198.379 230.519 189.649 226.236 179.672 220.01C159.733 207.569 135.005 187.491 110.236 162.722C85.4663 137.952 65.3891 113.225 52.9473 93.2855C46.722 83.309 42.4385 74.5789 40.4181 67.6707C39.4077 64.2161 38.9786 61.2679 39.1262 58.8742C39.2734 56.4888 39.9869 54.7178 41.202 53.5027Z" stroke="white" stroke-width="2"/>
<path opacity="0.103448" d="M49.3088 45.0595C50.6252 43.9549 52.4516 43.3984 54.8407 43.4597C57.2383 43.5212 60.1378 44.2057 63.4912 45.5133C70.197 48.1282 78.5206 53.1562 87.9166 60.2273C106.696 74.3596 129.579 96.5155 152.096 123.35C174.612 150.184 192.458 176.567 203.114 197.515C208.446 207.996 211.953 217.066 213.364 224.124C214.069 227.654 214.239 230.628 213.884 233C213.529 235.363 212.664 237.065 211.348 238.17C210.031 239.274 208.205 239.831 205.816 239.77C203.418 239.708 200.519 239.024 197.165 237.716C190.46 235.101 182.136 230.073 172.74 223.002C153.961 208.87 131.077 186.714 108.561 159.88C86.0443 133.046 68.1987 106.662 57.5421 85.7146C52.21 75.2334 48.7037 66.1632 47.293 59.1052C46.5876 55.5757 46.417 52.6013 46.7728 50.2296C47.1273 47.8661 47.9924 46.1641 49.3088 45.0595Z" stroke="white" stroke-width="2"/>
<path opacity="0.137931" d="M58.0325 37.3512C59.4402 36.3656 61.3081 35.9704 63.6828 36.2397C66.0658 36.5099 68.8947 37.4445 72.1214 39.0394C78.5738 42.2288 86.4274 47.9632 95.1714 55.8263C112.647 71.5415 133.513 95.6075 153.605 124.302C173.697 152.996 189.175 180.835 197.966 202.631C202.364 213.537 205.066 222.879 205.856 230.033C206.252 233.61 206.162 236.588 205.601 238.92C205.042 241.244 204.032 242.864 202.624 243.849C201.216 244.835 199.349 245.23 196.974 244.961C194.591 244.691 191.762 243.756 188.535 242.161C182.083 238.972 174.229 233.237 165.485 225.374C148.009 209.659 127.144 185.593 107.052 156.899C86.9598 128.204 71.4815 100.366 62.6911 78.5692C58.2929 67.6632 55.5904 58.3219 54.8002 51.1678C54.4051 47.5902 54.4944 44.6123 55.0555 42.2806C55.6147 39.957 56.6249 38.3369 58.0325 37.3512Z" stroke="white" stroke-width="2"/>
<path opacity="0.172414" d="M67.3065 30.429C68.7947 29.5698 70.69 29.339 73.0322 29.8142C75.3826 30.2911 78.1193 31.4686 81.1946 33.3387C87.3445 37.0783 94.6685 43.4754 102.694 52.0706C118.734 69.2492 137.422 95.0422 154.937 125.379C172.452 155.715 185.445 184.796 192.302 207.276C195.733 218.524 197.611 228.065 197.775 235.261C197.856 238.86 197.508 241.818 196.746 244.092C195.986 246.358 194.839 247.884 193.35 248.743C191.862 249.603 189.967 249.834 187.625 249.358C185.274 248.881 182.538 247.704 179.462 245.834C173.312 242.094 165.988 235.697 157.963 227.102C141.923 209.923 123.235 184.13 105.72 153.794C88.2053 123.458 75.2122 94.3762 68.355 71.8962C64.924 60.6484 63.046 51.1071 62.8823 43.9113C62.8005 40.3129 63.1491 37.3542 63.9112 35.0802C64.6708 32.8142 65.8183 31.2883 67.3065 30.429Z" stroke="white" stroke-width="2"/>
<path opacity="0.206897" d="M77.0597 24.3373C78.6171 23.611 80.5253 23.5463 82.8172 24.2238C85.1171 24.9038 87.7407 26.3153 90.6414 28.4463C96.4419 32.7077 103.18 39.7187 110.426 48.9808C124.908 67.4918 141.277 94.8155 156.081 126.563C170.885 158.31 181.294 188.414 186.166 211.406C188.604 222.91 189.643 232.578 189.179 239.761C188.947 243.353 188.342 246.27 187.384 248.469C186.43 250.66 185.154 252.08 183.597 252.806C182.039 253.533 180.131 253.597 177.839 252.92C175.539 252.24 172.916 250.828 170.015 248.697C164.214 244.436 157.476 237.425 150.23 228.163C135.749 209.652 119.379 182.328 104.575 150.581C89.771 118.833 79.362 88.7301 74.4901 65.738C72.0525 54.234 71.0132 44.5653 71.4773 37.3827C71.7094 33.7909 72.3145 30.8737 73.272 28.6748C74.2261 26.4837 75.5023 25.0635 77.0597 24.3373Z" stroke="white" stroke-width="2"/>
<path opacity="0.241379" d="M87.2189 19.1147C88.8337 18.5269 90.7403 18.6287 92.9644 19.5034C95.1963 20.3812 97.6869 22.0161 100.391 24.3918C105.798 29.1425 111.9 36.7142 118.311 46.5724C131.124 66.2752 145.049 94.9216 157.03 127.839C169.011 160.755 176.757 191.651 179.606 214.98C181.032 226.653 181.225 236.376 180.136 243.49C179.592 247.048 178.735 249.902 177.589 252.009C176.448 254.108 175.053 255.412 173.438 256C171.823 256.587 169.917 256.486 167.693 255.611C165.461 254.733 162.97 253.098 160.266 250.723C154.859 245.972 148.757 238.4 142.346 228.542C129.533 208.839 115.608 180.193 103.627 147.276C91.646 114.359 83.9002 83.4631 81.0508 60.1339C79.6251 48.4612 79.4325 38.7387 80.5208 31.6239C81.065 28.0659 81.9221 25.2126 83.0676 23.1056C84.209 21.0059 85.6041 19.7024 87.2189 19.1147Z" stroke="white" stroke-width="2"/>
<path opacity="0.275862" d="M97.7055 14.7946C99.3654 14.3498 101.256 14.6174 103.395 15.6826C105.542 16.7516 107.881 18.5973 110.367 21.1996C115.34 26.4035 120.758 34.4782 126.286 44.8577C137.333 65.6022 148.709 95.3533 157.775 129.189C166.841 163.025 171.865 194.478 172.67 217.967C173.073 229.72 172.418 239.422 170.714 246.415C169.861 249.912 168.759 252.68 167.434 254.679C166.114 256.671 164.61 257.848 162.951 258.293C161.291 258.737 159.4 258.47 157.261 257.405C155.114 256.336 152.775 254.49 150.289 251.888C145.316 246.684 139.898 238.609 134.37 228.23C123.323 207.485 111.947 177.734 102.881 143.898C93.8146 110.062 88.7911 78.6089 87.9858 55.1201C87.5828 43.3676 88.2383 33.6653 89.9426 26.6724C90.7949 23.1754 91.8973 20.4077 93.2221 18.4085C94.5422 16.4163 96.0456 15.2393 97.7055 14.7946Z" stroke="white" stroke-width="2"/>
<path opacity="0.310345" d="M108.441 11.4003C110.133 11.1019 111.993 11.5332 114.031 12.7808C116.077 14.0328 118.246 16.0753 120.496 18.8845C124.996 24.502 129.69 33.0182 134.292 43.8399C143.489 65.4683 152.229 96.0977 158.312 130.595C164.394 165.092 166.658 196.864 165.413 220.333C164.79 232.076 163.291 241.684 160.984 248.502C159.83 251.912 158.491 254.573 156.997 256.449C155.508 258.318 153.908 259.36 152.215 259.658C150.523 259.957 148.663 259.525 146.625 258.278C144.579 257.026 142.41 254.983 140.16 252.174C135.66 246.557 130.966 238.04 126.364 227.219C117.167 205.59 108.427 174.961 102.344 140.464C96.2615 105.966 93.9984 74.1948 95.2433 50.7253C95.8662 38.9823 97.3648 29.3741 99.672 22.5563C100.826 19.1469 102.165 16.4858 103.659 14.6097C105.148 12.7401 106.748 11.6987 108.441 11.4003Z" stroke="white" stroke-width="2"/>
<path opacity="0.344828" d="M119.343 8.95064C121.055 8.80087 122.87 9.39263 124.792 10.8132C126.721 12.2387 128.703 14.4625 130.7 17.4571C134.693 23.4454 138.628 32.3383 142.269 43.5199C149.546 65.8676 155.583 97.1422 158.636 132.038C161.689 166.934 161.174 198.782 157.888 222.054C156.244 233.698 153.914 243.139 151.021 249.73C149.575 253.026 148.009 255.56 146.357 257.299C144.711 259.031 143.026 259.929 141.314 260.079C139.602 260.229 137.787 259.637 135.865 258.217C133.936 256.791 131.954 254.567 129.957 251.573C125.963 245.584 122.029 236.691 118.388 225.51C111.111 203.162 105.074 171.888 102.021 136.991C98.9682 102.095 99.4828 70.2475 102.768 46.9758C104.412 35.3318 106.743 25.8907 109.635 19.3C111.082 16.0042 112.648 13.4699 114.3 11.7311C115.946 9.9984 117.631 9.10041 119.343 8.95064Z" stroke="white" stroke-width="2"/>
<path opacity="0.37931" d="M130.328 7.45631C132.046 7.45631 133.803 8.20404 135.594 9.7867C137.391 11.3749 139.172 13.763 140.901 16.9202C144.357 23.2338 147.501 32.4358 150.154 43.8922C155.455 66.789 158.743 98.4707 158.743 133.5C158.743 168.53 155.455 200.211 150.154 223.108C147.501 234.565 144.357 243.767 140.901 250.08C139.172 253.237 137.391 255.625 135.594 257.214C133.803 258.796 132.046 259.544 130.328 259.544C128.61 259.544 126.853 258.796 125.062 257.214C123.265 255.625 121.484 253.237 119.755 250.08C116.299 243.767 113.155 234.565 110.502 223.108C105.201 200.211 101.913 168.53 101.913 133.5C101.913 98.4707 105.201 66.789 110.502 43.8922C113.155 32.4358 116.299 23.2338 119.755 16.9202C121.484 13.763 123.265 11.3749 125.062 9.7867C126.853 8.20404 128.61 7.45631 130.328 7.45631Z" stroke="white" stroke-width="2"/>
<path opacity="0.413793" d="M141.314 6.92133C143.026 7.0711 144.711 7.9691 146.357 9.70181C148.009 11.4406 149.575 13.9749 151.022 17.2707C153.914 23.8614 156.245 33.3024 157.889 44.9465C161.174 68.2182 161.689 100.066 158.636 134.962C155.583 169.858 149.546 201.133 142.269 223.481C138.628 234.662 134.694 243.555 130.7 249.543C128.704 252.538 126.721 254.762 124.792 256.187C122.87 257.608 121.055 258.2 119.343 258.05C117.631 257.9 115.946 257.002 114.3 255.269C112.649 253.531 111.082 250.996 109.636 247.7C106.743 241.11 104.413 231.669 102.769 220.025C99.483 196.753 98.9684 164.905 102.021 130.009C105.074 95.1129 111.112 63.8383 118.388 41.4906C122.029 30.309 125.964 21.4161 129.957 15.4278C131.954 12.4332 133.936 10.2094 135.865 8.78389C137.787 7.36333 139.602 6.77156 141.314 6.92133Z" stroke="white" stroke-width="2"/>
<path opacity="0.448276" d="M152.216 7.3423C153.908 7.64071 155.508 8.68214 156.997 10.5517C158.491 12.4279 159.831 15.089 160.984 18.4984C163.292 25.3161 164.79 34.9243 165.413 46.6673C166.658 70.1369 164.395 101.908 158.312 136.406C152.229 170.903 143.489 201.532 134.293 223.161C129.691 233.982 124.997 242.499 120.497 248.116C118.246 250.925 116.077 252.968 114.032 254.22C111.993 255.467 110.134 255.899 108.441 255.6C106.749 255.302 105.149 254.26 103.66 252.391C102.166 250.515 100.826 247.854 99.6726 244.444C97.3653 237.626 95.8667 228.018 95.2438 216.275C93.9989 192.806 96.262 161.034 102.345 126.537C108.428 92.0397 117.167 61.4103 126.364 39.782C130.966 28.9602 135.66 20.444 140.16 14.8265C142.411 12.0174 144.58 9.97488 146.625 8.72285C148.663 7.4752 150.523 7.0439 152.216 7.3423Z" stroke="white" stroke-width="2"/>
<path opacity="0.482759" d="M162.951 8.70833C164.611 9.15309 166.114 10.33 167.434 12.3222C168.759 14.3214 169.862 17.0892 170.714 20.5862C172.418 27.5791 173.074 37.2813 172.671 49.0339C171.865 72.5227 166.842 103.976 157.775 137.812C148.709 171.648 137.333 201.399 126.286 222.143C120.759 232.523 115.34 240.597 110.368 245.801C107.881 248.404 105.542 250.249 103.396 251.318C101.256 252.384 99.3657 252.651 97.7058 252.206C96.0459 251.762 94.5425 250.585 93.2224 248.592C91.8976 246.593 90.7952 243.826 89.9429 240.329C88.2386 233.336 87.5831 223.633 87.9861 211.881C88.7914 188.392 93.8149 156.939 102.881 123.103C111.948 89.2671 123.324 59.516 134.371 38.7714C139.898 28.3919 145.317 20.3173 150.289 15.1134C152.776 12.511 155.114 10.6653 157.261 9.59636C159.401 8.53112 161.291 8.26356 162.951 8.70833Z" stroke="white" stroke-width="2"/>
<path opacity="0.517241" d="M173.438 11.0004C175.053 11.5881 176.448 12.8916 177.589 14.9913C178.735 17.0983 179.592 19.9516 180.136 23.5096C181.224 30.6244 181.032 40.3469 179.606 52.0196C176.757 75.3488 169.011 106.245 157.03 139.161C145.049 172.078 131.123 200.725 118.31 220.428C111.9 230.286 105.798 237.858 100.391 242.608C97.6867 244.984 95.1961 246.619 92.9642 247.497C90.7401 248.371 88.8336 248.473 87.2188 247.885C85.604 247.298 84.2089 245.994 83.0674 243.894C81.9219 241.787 81.0649 238.934 80.5206 235.376C79.4323 228.261 79.6249 218.539 81.0506 206.866C83.9001 183.537 91.6458 152.641 103.627 119.724C115.607 86.8073 129.533 58.1609 142.346 38.4581C148.757 28.5998 154.859 21.0282 160.266 16.2775C162.97 13.9018 165.461 12.2669 167.692 11.3891C169.916 10.5144 171.823 10.4126 173.438 11.0004Z" stroke="white" stroke-width="2"/>
<path opacity="0.551724" d="M183.597 14.1942C185.154 14.9205 186.43 16.3406 187.384 18.5318C188.342 20.7307 188.947 23.6478 189.179 27.2396C189.643 34.4223 188.604 44.0909 186.166 55.595C181.294 78.5871 170.885 108.69 156.081 140.438C141.277 172.185 124.908 199.509 110.426 218.02C103.181 227.282 96.442 234.293 90.6414 238.554C87.7407 240.685 85.1171 242.097 82.8172 242.777C80.5254 243.454 78.6172 243.39 77.0598 242.663C75.5023 241.937 74.2261 240.517 73.272 238.326C72.3145 236.127 71.7094 233.21 71.4773 229.618C71.0133 222.435 72.0525 212.767 74.4902 201.263C79.362 178.271 89.7711 148.167 104.575 116.42C119.379 84.6725 135.749 57.3488 150.23 38.8377C157.476 29.5757 164.214 22.5647 170.015 18.3033C172.916 16.1723 175.539 14.7607 177.839 14.0808C180.131 13.4032 182.039 13.468 183.597 14.1942Z" stroke="white" stroke-width="2"/>
<path opacity="0.586207" d="M193.35 18.2571C194.839 19.1163 195.986 20.6423 196.746 22.9083C197.508 25.1822 197.856 28.141 197.775 31.7394C197.611 38.9352 195.733 48.4764 192.302 59.7243C185.445 82.2043 172.452 111.286 154.937 141.622C137.422 171.958 118.733 197.751 102.694 214.93C94.6684 223.525 87.3444 229.922 81.1946 233.662C78.1192 235.532 75.3826 236.709 73.0321 237.186C70.69 237.662 68.7947 237.431 67.3065 236.572C65.8183 235.712 64.6707 234.186 63.9112 231.92C63.149 229.646 62.8004 226.688 62.8823 223.089C63.046 215.893 64.924 206.352 68.355 195.104C75.2122 172.624 88.2053 143.543 105.72 113.207C123.235 82.8702 141.923 57.0772 157.963 39.8987C165.988 31.3035 173.312 24.9064 179.462 21.1668C182.538 19.2967 185.274 18.1192 187.625 17.6423C189.967 17.167 191.862 17.3979 193.35 18.2571Z" stroke="white" stroke-width="2"/>
<path opacity="0.62069" d="M202.624 23.1512C204.032 24.1368 205.042 25.757 205.601 28.0805C206.162 30.4123 206.251 33.3902 205.856 36.9677C205.066 44.1218 202.364 53.4631 197.965 64.3691C189.175 86.1659 173.697 114.004 153.605 142.699C133.512 171.393 112.647 195.459 95.1712 211.174C86.4272 219.037 78.5735 224.772 72.1211 227.961C68.8944 229.556 66.0656 230.491 63.6826 230.761C61.3079 231.03 59.4399 230.635 58.0323 229.649C56.6246 228.664 55.6144 227.044 55.0553 224.72C54.4942 222.388 54.4048 219.41 54.8 215.833C55.5902 208.679 58.2926 199.337 62.6909 188.431C71.4812 166.635 86.9595 138.796 107.052 110.102C127.144 81.4074 148.009 57.3414 165.485 41.6262C174.229 33.7631 182.083 28.0287 188.535 24.8393C191.762 23.2444 194.591 22.3099 196.974 22.0396C199.348 21.7703 201.216 22.1655 202.624 23.1512Z" stroke="white" stroke-width="2"/>
<path opacity="0.655172" d="M211.348 28.8303C212.664 29.9349 213.529 31.6369 213.884 34.0004C214.239 36.3722 214.069 39.3465 213.364 42.876C211.953 49.934 208.446 59.0043 203.114 69.4854C192.458 90.4331 174.612 116.816 152.096 143.651C129.579 170.485 106.696 192.641 87.9166 206.773C78.5206 213.844 70.197 218.872 63.4912 221.487C60.1378 222.795 57.2383 223.479 54.8407 223.54C52.4516 223.602 50.6252 223.045 49.3088 221.941C47.9924 220.836 47.1273 219.134 46.7728 216.771C46.417 214.399 46.5876 211.425 47.293 207.895C48.7037 200.837 52.21 191.767 57.5421 181.286C68.1987 160.338 86.0443 133.955 108.561 107.12C131.077 80.2864 153.961 58.1305 172.74 43.9982C182.136 36.9271 190.46 31.899 197.165 29.2841C200.519 27.9765 203.418 27.2921 205.816 27.2306C208.205 27.1693 210.031 27.7257 211.348 28.8303Z" stroke="white" stroke-width="2"/>
<path opacity="0.689655" d="M219.455 35.2449C220.67 36.46 221.383 38.2309 221.53 40.6163C221.678 43.0101 221.249 45.9582 220.239 49.4128C218.218 56.321 213.935 65.0511 207.709 75.0277C195.268 94.9669 175.19 119.694 150.421 144.464C125.651 169.234 100.924 189.311 80.9846 201.753C71.008 207.978 62.2779 212.261 55.3697 214.282C51.9151 215.292 48.9669 215.721 46.5732 215.574C44.1878 215.426 42.4168 214.713 41.2017 213.498C39.9866 212.283 39.2731 210.512 39.1259 208.126C38.9783 205.733 39.4074 202.784 40.4178 199.33C42.4383 192.422 46.7217 183.692 52.947 173.715C65.3888 153.776 85.466 129.048 110.236 104.279C135.005 79.5091 159.733 59.4319 179.672 46.9901C189.648 40.7649 198.379 36.4814 205.287 34.4609C208.741 33.4505 211.69 33.0214 214.083 33.1691C216.469 33.3162 218.24 34.0297 219.455 35.2449Z" stroke="white" stroke-width="2"/>
<path opacity="0.724138" d="M226.883 42.3376C227.988 43.654 228.544 45.4804 228.483 47.8695C228.422 50.2671 227.737 53.1666 226.43 56.52C223.815 63.2258 218.787 71.5494 211.716 80.9454C197.583 99.7244 175.427 122.608 148.593 145.124C121.759 167.641 95.3758 185.487 74.4281 196.143C63.9469 201.475 54.8767 204.982 47.8187 206.392C44.2892 207.098 41.3149 207.268 38.9431 206.913C36.5796 206.558 34.8776 205.693 33.773 204.377C32.6684 203.06 32.1119 201.234 32.1732 198.845C32.2348 196.447 32.9192 193.548 34.2268 190.194C36.8417 183.488 41.8698 175.165 48.9408 165.769C63.0731 146.99 85.229 124.106 112.063 101.59C138.897 79.0731 165.281 61.2275 186.228 50.5709C196.709 45.2388 205.78 41.7325 212.838 40.3218C216.367 39.6164 219.342 39.4458 221.713 39.8016C224.077 40.1561 225.779 41.0212 226.883 42.3376Z" stroke="white" stroke-width="2"/>
<path opacity="0.758621" d="M233.577 50.0468C234.563 51.4545 234.958 53.3224 234.689 55.6971C234.419 58.0801 233.484 60.909 231.889 64.1357C228.7 70.588 222.965 78.4417 215.102 87.1857C199.387 104.661 175.321 125.527 146.627 145.619C117.932 165.711 90.0938 181.189 68.297 189.98C57.391 194.378 48.0497 197.08 40.8956 197.871C37.3181 198.266 34.3402 198.176 32.0084 197.615C29.6849 197.056 28.0647 196.046 27.079 194.638C26.0934 193.231 25.6982 191.363 25.9675 188.988C26.2378 186.605 27.1723 183.776 28.7672 180.55C31.9566 174.097 37.691 166.243 45.5541 157.499C61.2693 140.024 85.3353 119.158 114.03 99.0661C142.724 78.974 170.562 63.4958 192.359 54.7054C203.265 50.3071 212.607 47.6047 219.761 46.8145C223.338 46.4193 226.316 46.5087 228.648 47.0698C230.971 47.6289 232.592 48.6391 233.577 50.0468Z" stroke="white" stroke-width="2"/>
<path opacity="0.793103" d="M239.486 58.3064C240.345 59.7946 240.576 61.6899 240.1 64.0321C239.623 66.3825 238.446 69.1191 236.576 72.1945C232.836 78.3444 226.439 85.6684 217.844 93.6938C200.665 109.733 174.872 128.422 144.536 145.937C114.2 163.451 85.1182 176.445 62.6383 183.302C51.3904 186.733 41.8492 188.611 34.6534 188.774C31.055 188.856 28.0962 188.508 25.8223 187.746C23.5563 186.986 22.0303 185.839 21.1711 184.35C20.3119 182.862 20.081 180.967 20.5563 178.625C21.0332 176.274 22.2107 173.538 24.0808 170.462C27.8204 164.312 34.2174 156.988 42.8127 148.963C59.9912 132.923 85.7842 114.235 116.121 96.7199C146.457 79.2052 175.538 66.2121 198.018 59.3549C209.266 55.9239 218.807 54.0459 226.003 53.8822C229.602 53.8004 232.56 54.1489 234.834 54.9111C237.1 55.6706 238.626 56.8182 239.486 58.3064Z" stroke="white" stroke-width="2"/>
<path opacity="0.827586" d="M244.563 67.0454C245.289 68.6029 245.354 70.5111 244.676 72.8029C243.996 75.1028 242.585 77.7264 240.454 80.6271C236.192 86.4276 229.181 93.1662 219.919 100.412C201.408 114.893 174.084 131.263 142.337 146.067C110.59 160.871 80.4865 171.28 57.4944 176.152C45.9903 178.59 36.3217 179.629 29.139 179.165C25.5472 178.933 22.6301 178.328 20.4312 177.37C18.24 176.416 16.8199 175.14 16.0936 173.582C15.3674 172.025 15.3026 170.117 15.9802 167.825C16.6601 165.525 18.0717 162.901 20.2027 160.001C24.4641 154.2 31.4751 147.462 40.7371 140.216C59.2482 125.734 86.5719 109.365 118.319 94.5608C150.067 79.7567 180.17 69.3477 203.162 64.4758C214.666 62.0382 224.335 60.9989 231.517 61.463C235.109 61.6951 238.026 62.3002 240.225 63.2577C242.416 64.2118 243.836 65.488 244.563 67.0454Z" stroke="white" stroke-width="2"/>
<path opacity="0.862069" d="M248.771 76.1901C249.358 77.8049 249.257 79.7115 248.382 81.9356C247.504 84.1675 245.869 86.6581 243.493 89.362C238.743 94.769 231.171 100.871 221.313 107.282C201.61 120.095 172.964 134.021 140.047 146.001C107.13 157.982 76.234 165.728 52.9048 168.577C41.2321 170.003 31.5097 170.196 24.3948 169.107C20.8369 168.563 17.9836 167.706 15.8765 166.561C13.7768 165.419 12.4733 164.024 11.8856 162.409C11.2978 160.794 11.3996 158.888 12.2744 156.664C13.1522 154.432 14.787 151.941 17.1627 149.237C21.9134 143.83 29.4851 137.728 39.3434 131.317C59.0461 118.505 87.6925 104.579 120.609 92.598C153.526 80.6172 184.422 72.8714 207.751 70.022C219.424 68.5963 229.147 68.4036 236.261 69.492C239.819 70.0362 242.673 70.8933 244.78 72.0388C246.879 73.1802 248.183 74.5753 248.771 76.1901Z" stroke="white" stroke-width="2"/>
<path opacity="0.896552" d="M252.077 85.6629C252.522 87.3228 252.254 89.2132 251.189 91.3526C250.12 93.4995 248.275 95.8381 245.672 98.3247C240.468 103.297 232.394 108.716 222.014 114.243C201.27 125.29 171.519 136.666 137.683 145.733C103.847 154.799 72.3935 159.822 48.9048 160.628C37.1522 161.031 27.4499 160.375 20.457 158.671C16.96 157.819 14.1923 156.716 12.1931 155.391C10.2009 154.071 9.02394 152.568 8.57918 150.908C8.13441 149.248 8.40197 147.358 9.46722 145.218C10.5362 143.071 12.3819 140.733 14.9842 138.246C20.1881 133.274 28.2628 127.855 38.6423 122.328C59.3868 111.281 89.1379 99.9046 122.974 90.8383C156.81 81.772 188.263 76.7485 211.752 75.9432C223.504 75.5402 233.207 76.1957 240.199 77.9C243.696 78.7522 246.464 79.8547 248.463 81.1795C250.456 82.4996 251.632 84.003 252.077 85.6629Z" stroke="white" stroke-width="2"/>
<path opacity="0.931035" d="M254.457 95.3838C254.756 97.0761 254.324 98.936 253.077 100.974C251.825 103.02 249.782 105.189 246.973 107.439C241.355 111.939 232.839 116.633 222.018 121.235C200.389 130.432 169.76 139.172 135.262 145.255C100.765 151.338 68.9937 153.601 45.5242 152.356C33.7812 151.733 24.173 150.234 17.3552 147.927C13.9458 146.773 11.2847 145.434 9.40859 143.94C7.53901 142.451 6.49758 140.851 6.19918 139.158C5.90077 137.466 6.33207 135.606 7.57973 133.568C8.83176 131.522 10.8743 129.353 13.6834 127.103C19.3009 122.603 27.8171 117.909 38.6388 113.307C60.2672 104.11 90.8966 95.3702 125.394 89.2874C159.891 83.2046 191.663 80.9415 215.132 82.1864C226.875 82.8093 236.483 84.3079 243.301 86.6152C246.71 87.769 249.372 89.1085 251.248 90.6024C253.117 92.0912 254.159 93.6914 254.457 95.3838Z" stroke="white" stroke-width="2"/>
<path opacity="0.965517" d="M255.893 105.271C256.042 106.983 255.451 108.799 254.03 110.721C252.604 112.649 250.381 114.632 247.386 116.629C241.398 120.622 232.505 124.556 221.323 128.197C198.976 135.474 167.701 141.511 132.805 144.564C97.9087 147.617 66.0609 147.103 42.7891 143.817C31.1451 142.173 21.7041 139.843 15.1134 136.95C11.8175 135.503 9.28329 133.937 7.54449 132.285C5.81178 130.639 4.91378 128.954 4.76401 127.242C4.61424 125.53 5.20601 123.715 6.62657 121.793C8.05212 119.865 10.2759 117.882 13.2705 115.885C19.2587 111.892 28.1517 107.958 39.3333 104.317C61.681 97.0398 92.9555 91.0027 127.852 87.9497C162.748 84.8967 194.596 85.4113 217.867 88.697C229.511 90.341 238.952 92.6712 245.543 95.5639C248.839 97.0105 251.373 98.5768 253.112 100.229C254.845 101.875 255.743 103.56 255.893 105.271Z" stroke="white" stroke-width="2"/>
<path d="M256.372 115.242C256.372 116.961 255.624 118.718 254.042 120.508C252.453 122.305 250.065 124.087 246.908 125.815C240.594 129.271 231.392 132.415 219.936 135.068C197.039 140.369 165.358 143.658 130.328 143.658C95.2986 143.658 63.6169 140.369 40.72 135.068C29.2636 132.415 20.0616 129.271 13.7481 125.815C10.5909 124.087 8.20278 122.305 6.61456 120.508C5.03191 118.718 4.28418 116.961 4.28418 115.242C4.28418 113.524 5.03191 111.767 6.61456 109.976C8.20278 108.179 10.5909 106.398 13.7481 104.67C20.0616 101.214 29.2636 98.0694 40.72 95.4168C63.6169 90.1153 95.2986 86.827 130.328 86.827C165.358 86.827 197.039 90.1153 219.936 95.4168C231.392 98.0694 240.594 101.214 246.908 104.67C250.065 106.398 252.453 108.179 254.042 109.976C255.624 111.767 256.372 113.524 256.372 115.242Z" stroke="white" stroke-width="2"/>
</svg>
